<svg xmlns="http://www.w3.org/2000/svg" width="98" height="98" fill="none" viewBox="0 0 98 98"><g filter="url(#a)"><g clip-path="url(#b)"><rect width="84.25" height="84.25" x="6.88" y="2.29" fill="#00247d" rx="42"/><g clip-path="url(#c)"><path fill="#00247d" fill-rule="evenodd" d="M6.88 12.32h84.24v63.19H6.88z" clip-rule="evenodd"/><path fill="#fff" d="M71.43 26.43v2l4-2z"/><path fill="#fff" d="m72.23 28.83-.8-1.6 4-.8zm-.8-2.4v2l-4-2z"/><path fill="#fff" d="m70.63 28.83.8-1.6-4-.8z"/><path fill="#fff" d="m72.57 27.26-1.9.62 3.14 3.18z"/><path fill="#fff" d="m70.54 28.76 1.27-1.25 2 3.55z"/><path fill="#fff" d="m70.3 27.26 1.89.62-.66-4.42z"/><path fill="#fff" d="m72.82 27.24-1.77.27.48-4.05z"/><path fill="#fff" d="m70.3 27.26 1.89.62-3.13 3.18z"/><path fill="#fff" d="m72.32 28.76-1.27-1.25-2 3.55z"/><path fill="#cc142b" d="M71.44 26.84v1.32l2.63-1.32z"/><path fill="#cc142b" d="m71.96 28.42-.52-1.05 2.63-.53zm-.52-1.58v1.32l-2.64-1.32z"/><path fill="#cc142b" d="m70.9 28.42.53-1.05-2.63-.53z"/><path fill="#cc142b" d="m72.19 27.38-1.26.41L73 29.9z"/><path fill="#cc142b" d="m70.84 28.38.85-.83L73 29.89z"/><path fill="#cc142b" d="m70.68 27.38 1.25.41-.44-2.92z"/><path fill="#cc142b" d="m72.35 27.37-1.17.18.31-2.68z"/><path fill="#cc142b" d="m70.68 27.38 1.25.41-2.07 2.1z"/><path fill="#cc142b" d="m72.02 28.38-.84-.83-1.32 2.34z"/><path fill="#fff" d="M81.9 35.65v1.77l3.55-1.77z"/><path fill="#fff" d="m82.61 37.78-.71-1.42 3.55-.71zm-.71-2.13v1.77l-3.55-1.77z"/><path fill="#fff" d="m81.19 37.78.7-1.42-3.54-.71z"/><path fill="#fff" d="m82.91 36.38-1.69.55 2.8 2.83z"/><path fill="#fff" d="m81.1 37.72 1.14-1.12L84 39.76z"/><path fill="#fff" d="m80.88 36.38 1.7.55-.6-3.93z"/><path fill="#fff" d="m83.13 36.37-1.57.23.42-3.6zm-2.25.01 1.7.55-2.8 2.83z"/><path fill="#fff" d="m82.7 37.72-1.14-1.12-1.77 3.16z"/><path fill="#cc142b" d="M81.9 36.05v1.1l2.2-1.1z"/><path fill="#cc142b" d="m82.34 37.37-.44-.88 2.2-.44zm-.44-1.32v1.1l-2.2-1.1z"/><path fill="#cc142b" d="m81.46 37.37.44-.88-2.2-.44z"/><path fill="#cc142b" d="m82.53 36.5-1.05.35 1.73 1.75z"/><path fill="#cc142b" d="m81.4 37.34.7-.7 1.1 1.96z"/><path fill="#cc142b" d="m81.27 36.5 1.04.35-.36-2.43z"/><path fill="#cc142b" d="m82.66 36.5-.97.15.26-2.23z"/><path fill="#cc142b" d="m81.27 36.5 1.04.35-1.72 1.75z"/><path fill="#cc142b" d="m82.39 37.34-.7-.7-1.1 1.96z"/><path fill="#fff" d="M59.24 38.7v2l4-2z"/><path fill="#fff" d="m60.04 41.1-.8-1.6 4-.8zm-.8-2.4v2l-3.99-2z"/><path fill="#fff" d="m58.44 41.1.8-1.6-3.99-.8z"/><path fill="#fff" d="m60.38 39.53-1.9.62 3.14 3.18z"/><path fill="#fff" d="m58.35 41.03 1.27-1.25 2 3.55z"/><path fill="#fff" d="m58.1 39.53 1.9.62-.66-4.42z"/><path fill="#fff" d="m60.63 39.51-1.77.27.48-4.05z"/><path fill="#fff" d="m58.1 39.53 1.9.62-3.13 3.18z"/><path fill="#fff" d="m60.14 41.03-1.28-1.25-2 3.55z"/><path fill="#cc142b" d="M59.25 39.1v1.33l2.64-1.32z"/><path fill="#cc142b" d="m59.77 40.7-.52-1.06 2.64-.53zm-.52-1.6v1.33L56.6 39.1z"/><path fill="#cc142b" d="m58.72 40.7.53-1.06-2.64-.53z"/><path fill="#cc142b" d="m60 39.66-1.26.4 2.07 2.1z"/><path fill="#cc142b" d="m58.66 40.65.84-.83 1.31 2.35z"/><path fill="#cc142b" d="m58.5 39.66 1.25.4-.44-2.91z"/><path fill="#cc142b" d="m60.16 39.64-1.16.18.31-2.67z"/><path fill="#cc142b" d="m58.5 39.66 1.25.4-2.07 2.1z"/><path fill="#cc142b" d="m59.84 40.65-.84-.83-1.32 2.35z"/><path fill="#fff" d="M71.44 57.97v2.21l4.43-2.21z"/><path fill="#fff" d="m72.32 60.63-.88-1.78 4.43-.88zm-.88-2.66v2.21L67 57.97z"/><path fill="#fff" d="m70.55 60.63.89-1.78-4.44-.88z"/><path fill="#fff" d="m72.7 58.89-2.1.68 3.47 3.53z"/><path fill="#fff" d="m70.44 60.55 1.42-1.4 2.21 3.95z"/><path fill="#fff" d="m70.17 58.89 2.11.68-.74-4.9z"/><path fill="#fff" d="m72.98 58.86-1.96.3.52-4.5zm-2.81.03 2.1.68-3.47 3.53z"/><path fill="#fff" d="M72.43 60.55 71 59.15l-2.2 3.95z"/><path fill="#cc142b" d="M71.43 58.37v1.54l3.08-1.54z"/><path fill="#cc142b" d="m72.05 60.22-.62-1.23 3.08-.62z"/><path fill="#cc142b" d="M71.43 58.37v1.54l-3.08-1.54z"/><path fill="#cc142b" d="m70.82 60.22.61-1.23-3.08-.62z"/><path fill="#cc142b" d="m72.31 59.01-1.46.48 2.41 2.45z"/><path fill="#cc142b" d="m70.75 60.17.98-.97 1.53 2.74z"/><path fill="#cc142b" d="m70.55 59.01 1.47.48-.52-3.4z"/><path fill="#cc142b" d="m72.5 59-1.36.2.36-3.12zm-1.95.01 1.47.48-2.42 2.45z"/><path fill="#cc142b" d="m72.12 60.17-.98-.97-1.54 2.74z"/><path fill="#012169" d="M6.88 12.32H49v31.6H6.88z"/><path fill="#fff" d="m11.81 12.32 16.06 11.91 16-11.9H49v4.07L33.2 28.18 49 39.9v4.01h-5.27l-15.8-11.78-15.72 11.78H6.88v-3.95L22.6 28.25 6.88 16.53v-4.2z"/><path fill="#c8102e" d="M34.78 30.82 49 41.28v2.63l-17.84-13.1zm-12.1 1.31.39 2.3-12.64 9.48H6.88zM49 12.33v.19L32.6 24.89l.13-2.9 12.97-9.67zm-42.12 0L22.6 23.9h-3.95L6.88 15.09z"/><path fill="#fff" d="M22.74 12.32v31.6h10.53v-31.6zM6.88 22.85v10.53H49V22.85z"/><path fill="#c8102e" d="M6.88 25.02v6.32H49v-6.32zm17.96-12.7v31.6h6.32v-31.6z"/></g></g></g><defs><clipPath id="b"><rect width="84.25" height="84.25" x="6.88" y="2.29" fill="#fff" rx="42"/></clipPath><clipPath id="c"><path fill="#fff" d="M6.88 12.32h84.24v63.19H6.88z"/></clipPath><filter id="a" width="98" height="98" x="0" y="0" color-interpolation-filters="sRGB" filterUnits="userSpaceOnUse"><feFlood flood-opacity="0" result="BackgroundImageFix"/><feColorMatrix in="SourceAlpha" result="hardAlpha" values="0 0 0 0 0 0 0 0 0 0 0 0 0 0 0 0 0 0 127 0"/><feOffset dy="4.57"/><feGaussianBlur stdDeviation="3.43"/><feComposite in2="hardAlpha" operator="out"/><feColorMatrix values="0 0 0 0 0.258824 0 0 0 0 0.278431 0 0 0 0 0.298039 0 0 0 0.08 0"/><feBlend in2="BackgroundImageFix" result="effect1_dropShadow_1247_8128"/><feColorMatrix in="SourceAlpha" result="hardAlpha" values="0 0 0 0 0 0 0 0 0 0 0 0 0 0 0 0 0 0 127 0"/><feOffset/><feGaussianBlur stdDeviation=".29"/><feComposite in2="hardAlpha" operator="out"/><feColorMatrix values="0 0 0 0 0.258824 0 0 0 0 0.278431 0 0 0 0 0.298039 0 0 0 0.32 0"/><feBlend in2="effect1_dropShadow_1247_8128" result="effect2_dropShadow_1247_8128"/><feBlend in="SourceGraphic" in2="effect2_dropShadow_1247_8128" result="shape"/></filter></defs></svg>