<svg xmlns="http://www.w3.org/2000/svg" width="98" height="98" fill="none" viewBox="0 0 98 98"><g filter="url(#a)"><g clip-path="url(#b)"><rect width="84.25" height="84.25" x="6.88" y="2.29" fill="#ffda2c" rx="42"/><path fill="#ffda2c" d="M-9.97 2.29h117.94v84.25H-9.97z"/><path fill="#ff6c2d" d="M-9.97 2.29h117.94v84.25H-9.97z" opacity=".3"/><path fill="#0a6a30" fill-rule="evenodd" d="M1.26 13.52H18.1V75.3H1.26z" clip-rule="evenodd"/><path fill="#ff6c2d" fill-rule="evenodd" d="M18.1 13.52h16.86V75.3H18.1z" clip-rule="evenodd"/><path fill="#151515" fill-rule="evenodd" d="M18.1 13.52h16.86V75.3H18.1z" clip-rule="evenodd" opacity=".2"/><path fill="#af010d" fill-rule="evenodd" d="M40.57 13.52h56.17V75.3H40.57zm19.86 48.4.32-.25.14.25c.18.33.7.32 1.03 0l.26-.27.23.25c.28.34.8.34 1.14 0 .25-.23.28-.24.44-.05.1.1.37.22.6.26.45.08.46.08.71-.44.23-.42.25-.6.2-1-.03-.29-.07-.73-.08-.99-.01-.48-.01-.49.52-.73.28-.13.61-.31.74-.4.21-.15.79-1.05.79-1.24 0-.04-.23-.11-.5-.16q-1.65-.24-.57-2.41c1.16-2.37 1.87-4.7 1.87-6.17q0-.97.1-.73c.26.58-.21 3.03-.92 4.8l-.28.72.27-.09c.15-.05 1.03-.54 1.95-1.1 2.53-1.52 3.4-1.82 5.04-1.73 1.37.08 1.95.43 2.92 1.79.51.71 1 1.22 1.9 1.97 1.94 1.61 2.02 1.75 2.1 3.63.1 1.91.06 2.02-1.03 2.34-.93.27-1.52.84-1.67 1.64q-.12.66.56.05l.34-.3.16.3c.2.4.63.4.98 0l.26-.28.27.28c.43.45 1 .35 1.15-.23q.04-.15.28.13c.31.36 1.1.52 1.2.22.03-.1-.04-.36-.14-.58a4 4 0 0 1-.62-1.87c0-.7.15-1.03.75-1.6.73-.7.95-1.57.4-1.57-.33 0-.68-.41-.9-1.07-.44-1.32-.36-2.81.3-5.28.68-2.53.76-2.98.77-4.66 0-1.37-.02-1.6-.26-2.35a10 10 0 0 0-.64-1.5l-.37-.68.49-.55c1.5-1.65 1.2-4.36-.62-5.4-.55-.32-.69-.35-1.65-.33-.59 0-1.46.1-1.97.23-.51.1-1.38.2-1.98.2-.94 0-1.1-.01-1.46-.27-.38-.27-.44-.4-.52-1.01 0-.14-.08-.26-.14-.28-.13-.06-.73.61-.81.93-.05.15-.09.13-.21-.06-.08-.14-.2-.45-.26-.68q-.24-.9.56-1.4l.42-.26-.24-.2c-.5-.42-1.36-.14-1.67.55-.1.19-.19.35-.21.35-.03 0-.2-.18-.38-.4-.65-.85-.42-2.1.45-2.5.46-.2.87-.04.96.37.13.63.54-.2.47-.94-.06-.5-.06-.52.2-.52.36 0 1.13.63 1.37 1.12.28.56.25 1.46-.06 2.13l-.22.52.3-.08c.45-.12.9-.5 1.12-.96.24-.48.27-1.42.06-1.93-.2-.49-.19-.56.11-.39.52.28.79.58 1 1.12.19.48.2.6.1 1.1-.06.3-.2.71-.3.9-.17.3-.17.35-.05.35.25 0 .76-.31.94-.57.1-.13.23-.45.3-.72l.13-.47.15.36c.21.5.62.97 1.12 1.26.55.31.77.34.5.05-.2-.2-.55-1.58-.45-1.7.06-.09.8.67 1.63 1.67.8.95 1.3 1.26 2.03 1.26.93 0 1.47-1.08 1.06-2.1-.25-.6-.8-.67-1.1-.17a1 1 0 0 0-.16.66c.06.3.04.34-.16.34-.28 0-.81-.45-1.76-1.5-1.44-1.6-3.2-2.96-4.46-3.46a7 7 0 0 0-3.37-.24c-.9.2-1.97.9-2.54 1.62-1.02 1.3-1.03 3-.04 4.58l.28.44-.19.4a2.2 2.2 0 0 0 .06 1.94c.14.25.28.46.31.46.04 0 .07-.17.08-.37q.06-.76.47-.97c.25-.12.41-.07 1.56.54 1.21.64 3.2.68 5.3.11 1.04-.27 2.26-.25 2.8.05.98.55 1.22 1.97.5 3.06-.32.46-.63.65-1.64 1.02-.77.28-.95.3-2.71.28a9 9 0 0 0-2.65.19c-.66.18-1.07.2-3.02.14l-2.26-.08.25.28c.14.14.34.33.43.4.17.13.17.15-.09.27-.15.08-.47.14-.73.14h-.46l-.06.52c-.03.3-.03.62 0 .75.06.19.04.2-.11.14a3 3 0 0 0-.6-.2c-.23-.07-.55-.2-.7-.3-.26-.17-.28-.17-.38.05-.08.2-.86.98-.98.98-.02 0-.04-.15-.06-.34 0-.18-.11-.65-.25-1.05l-.29-.97c-.05-.2-.07-.21-.14-.06-.04.1-.1.37-.13.6s-.15.62-.26.85l-.2.41-.13-.36c-.14-.38-.37-.78-.45-.78-.03 0-.08.13-.11.28-.06.3-.6 1.18-.73 1.18-.06 0-.1-.25-.1-.55s-.04-.54-.1-.54q-.08.01-.09.17c0 .22-.46.91-.61.91q-.13.02-.25.18c-.17.26-.3.23-.24-.05.04-.14.01-.45-.05-.7l-.15-.6q-.02-.14-.54.09c-.57.24-.76.2-.47-.11.11-.12.28-.5.37-.86s.22-.67.3-.71c.1-.03.1.02-.03.24-.08.15-.16.37-.16.47s-.07.33-.15.53-.13.38-.11.4.24-.08.48-.24l.45-.28V42c0 .14.06.5.11.82l.13.56.3-.18c.31-.2.6-.87.6-1.4 0-.27.12-.22.16.06l.16.67.14.53.2-.34c.12-.18.27-.54.33-.8.11-.44.27-.63.27-.3 0 .23.48 1.06.57 1 .05-.04.14-.36.2-.7.13-.73.35-1.23.49-1.13q.08.08.04.17c-.03.06.08.53.24 1.06l.37 1.16c.06.2.11.17.46-.24.22-.25.42-.53.44-.63.03-.13.08-.12.28.04.28.23 1.23.62 1.3.51.04-.03.06-.36.06-.73l.02-.67.28.07c.15.05.47.04.7 0l.43-.08-.38-.35c-.2-.19-.42-.44-.47-.55s-.24-.22-.45-.24c-.58-.07-1.6-.83-1.6-1.18 0-.07.15.04.32.25.38.46.91.76 1.37.76h.35l-.21-.38a3 3 0 0 1-.27-.97c-.04-.53-.08-.61-.5-1a6 6 0 0 1-.7-.8l-.24-.35-.12.42c-.07.24-.15.42-.18.42-.04 0-.17-.13-.28-.3-.13-.16-.26-.3-.28-.3-.04 0-.15.23-.26.5l-.18.5-.15-.28a4 4 0 0 0-.42-.62c-.15-.2-.24-.34-.18-.34s.25.2.42.42l.32.43.13-.31c.07-.18.1-.47.07-.7-.06-.34-.05-.35.05-.14.06.13.25.4.41.56l.3.34.22-.5c.2-.51.2-.51.3-.22.13.4 1.04 1.4 1.81 1.98q.18.13-.15-.93a3 3 0 0 1-.11-.75c0-.34-.07-.49-.4-.81-.45-.47-.6-.8-.7-1.56-.02-.31-.1-.66-.17-.76-.1-.17-.11-.08-.08.5 0 .39-.03.86-.1 1.06l-.1.36-.1-.3a2 2 0 0 0-.47-.65c-.23-.19-.37-.37-.34-.41s.25.13.49.38c.36.38.45.42.5.25.05-.2 0-1.04-.12-1.62-.06-.3-.06-.3.22.05.2.28.31.6.4 1.16.11.71.17.84.66 1.4.3.36.56.62.57.6.03-.02.06-.92.09-2 .05-2.05 0-2.53-.38-3.17l-.19-.32.3-.44c.4-.56.57-1 .65-1.63l.07-.5-.34.43c-.28.35-.41.43-.73.43s-.45-.07-.66-.38a3 3 0 0 0-1.15-.89q-.24-.09-.23.12c0 .1-.08.41-.2.68l-.2.5-.4-.55c-.27-.34-.57-.6-.8-.68-.57-.2-.6-.18-.6.4q-.01 1.3-.79.44c-.37-.45-.7-.54-1.42-.43l-.56.09.11.33c.08.28.06.4-.12.72-.3.51-.68.74-1.26.74-.27 0-.6.07-.75.17-.14.08-.5.19-.79.22-.29.04-.6.11-.69.15-.13.07-.15.01-.11-.4.07-.64-.26-1.1-.79-1.1-.67 0-.98.8-.72 1.86.05.18.1.45.14.64l.01.07c.04.2.34.72.72 1.22.36.48.7.98.75 1.11s.24.34.41.46l.31.23-.04-.44q-.06-.72.23-.22c.07.13.24.32.39.45.22.18.26.18.26.02 0-.11.05-.34.1-.53l.12-.34.16.47c.1.25.43.83.72 1.29.58.87.92 1.85.74 2.08q-.09.14-.67-.03a3 3 0 0 0-.88-.1c-.33.06-.35 0-.15-.33.22-.35.18-.41-.24-.41a7 7 0 0 1-2.16-.56c-.45-.23-.56-.17-.7.4l-.23 1.03-.13.56.49-.05c.27-.04.61-.12.77-.18.15-.06.3-.1.31-.08s-.06.25-.15.5l-.2.45.32-.08c.16-.05.42-.16.56-.25.25-.16.26-.14.46.27.23.5.43.48.46-.06q.07-.83.45.27c.25.7.51.95.55.54a1 1 0 0 1 .3-.5q.45-.43.65.24c.14.45-.16.92-1.01 1.62a8.3 8.3 0 0 0-3.04 5.73 7.5 7.5 0 0 0 2.18 6.08c.77.79 2 1.6 1.93 1.3-.33-1.34-.31-3.88.02-4.31.06-.07.04.2-.04.58-.27 1.45-.15 2.6.55 5.3.62 2.45.54 3.5-.35 4.18-.28.23-.47.26-1.24.25-.83-.01-.92.01-1.19.3a3.4 3.4 0 0 0-.59 1.59q0 .34.57-.1zm-6.3-4.5c.1-.15.16-.4.16-.53 0-.21.08-.27.43-.34l.44-.08-.28-.3c-.35-.37-.39-.65-.08-.65.3 0 .8-.41.89-.73a.6.6 0 0 0-.05-.42c-.17-.26-.49-.22-.54.06-.07.3-.17.31-.41 0-.36-.44-.38-1.39-.02-1.94.16-.26.16-.28-.06-.54-.22-.29-.4-.86-.28-1 .04-.03.22 0 .4.09.26.1.37.12.48 0 .33-.34-.03-.79-.56-.69q-.3.06-.33-.14c-.02-.12-.2-.27-.42-.34-.37-.13-.38-.11-.38.22q-.01.57-.46.21c-.26-.2-.5-.04-.5.31q.02.5.7.45c.34-.03.35.31.03.8l-.24.35.19.35c.28.53.25 1.4-.06 1.83l-.22.34-.16-.27c-.22-.38-.5-.35-.6.05-.05.27 0 .39.25.67.17.18.41.33.54.33.32 0 .31.34-.02.69l-.27.27.42.08c.22.05.4.14.4.2 0 .22.28.94.38.94.06 0 .17-.11.24-.26m1.43-12.19c.93-.54 1-1.93.13-2.3q-.54-.21-.73.27c-.11.25-.04.7.11.7q.08.02.09.18c0 .49-1.42.7-2 .31-.2-.14-.28-.5-.11-.5.1 0 .2-.36.14-.62q-.15-.53-.74-.34c-.87.3-.84 1.66.04 2.25.73.46 2.32.5 3.08.05zm-.58-1.06q.07-.1-.06-.27-.3-.32.03-.87c.17-.26.18-.65.24-4.64.1-6.87.48-12.03.98-13.27.2-.5.17-.5-.34-.03a6.4 6.4 0 0 0-1.63 2.53c-.86 2.14-1.15 5.01-1.15 11.14 0 3.49.02 3.94.16 4.27.15.3.16.42.06.76-.07.2-.1.42-.07.45.2.24 1.58.18 1.78-.08M51.8 19.14h-5.6v5.62h5.61zm39.32 0H85.5v5.62h5.62zM51.8 64.07h-5.6v5.62h5.61zm39.32 0H85.5v5.62h5.62z" clip-rule="evenodd"/></g></g><defs><clipPath id="b"><rect width="84.25" height="84.25" x="6.88" y="2.29" fill="#fff" rx="42"/></clipPath><filter id="a" width="98" height="98" x="0" y="0" color-interpolation-filters="sRGB" filterUnits="userSpaceOnUse"><feFlood flood-opacity="0" result="BackgroundImageFix"/><feColorMatrix in="SourceAlpha" result="hardAlpha" values="0 0 0 0 0 0 0 0 0 0 0 0 0 0 0 0 0 0 127 0"/><feOffset dy="4.57"/><feGaussianBlur stdDeviation="3.43"/><feComposite in2="hardAlpha" operator="out"/><feColorMatrix values="0 0 0 0 0.258824 0 0 0 0 0.278431 0 0 0 0 0.298039 0 0 0 0.08 0"/><feBlend in2="BackgroundImageFix" result="effect1_dropShadow_1104_53423"/><feColorMatrix in="SourceAlpha" result="hardAlpha" values="0 0 0 0 0 0 0 0 0 0 0 0 0 0 0 0 0 0 127 0"/><feOffset/><feGaussianBlur stdDeviation=".29"/><feComposite in2="hardAlpha" operator="out"/><feColorMatrix values="0 0 0 0 0.258824 0 0 0 0 0.278431 0 0 0 0 0.298039 0 0 0 0.32 0"/><feBlend in2="effect1_dropShadow_1104_53423" result="effect2_dropShadow_1104_53423"/><feBlend in="SourceGraphic" in2="effect2_dropShadow_1104_53423" result="shape"/></filter></defs></svg>